<svg height="2574" width="720" xmlns="http://www.w3.org/2000/svg">
<rect height="2574" fill="#555" width="720"></rect>
<text fill="#7f7" font-family="Courier New" font-size="12" xml:space="preserve">
<tspan x="10" y="26">21 megabytes installed</tspan>
<tspan x="10" y="42"></tspan>
<tspan x="10" y="58">node_modules</tspan>
<tspan x="10" y="74">└─┬ cheerio-httpcli@0.6.11 </tspan>
<tspan x="10" y="90">  ├── @types/cheerio@0.17.31 </tspan>
<tspan x="10" y="106">  ├── @types/node@6.0.70 </tspan>
<tspan x="10" y="122">  ├─┬ async@2.3.0 </tspan>
<tspan x="10" y="138">  │ └── lodash@4.17.4 </tspan>
<tspan x="10" y="154">  ├─┬ cheerio@0.22.0 </tspan>
<tspan x="10" y="170">  │ ├─┬ css-select@1.2.0 </tspan>
<tspan x="10" y="186">  │ │ ├── boolbase@1.0.0 </tspan>
<tspan x="10" y="202">  │ │ ├── css-what@2.1.0 </tspan>
<tspan x="10" y="218">  │ │ ├── domutils@1.5.1 </tspan>
<tspan x="10" y="234">  │ │ └── nth-check@1.0.1 </tspan>
<tspan x="10" y="250">  │ ├─┬ dom-serializer@0.1.0 </tspan>
<tspan x="10" y="266">  │ │ └── domelementtype@1.1.3 </tspan>
<tspan x="10" y="282">  │ ├── entities@1.1.1 </tspan>
<tspan x="10" y="298">  │ ├─┬ htmlparser2@3.9.2 </tspan>
<tspan x="10" y="314">  │ │ ├── domelementtype@1.3.0 </tspan>
<tspan x="10" y="330">  │ │ ├── domhandler@2.3.0 </tspan>
<tspan x="10" y="346">  │ │ ├── inherits@2.0.3 </tspan>
<tspan x="10" y="362">  │ │ └─┬ readable-stream@2.2.9 </tspan>
<tspan x="10" y="378">  │ │   ├── buffer-shims@1.0.0 </tspan>
<tspan x="10" y="394">  │ │   ├── core-util-is@1.0.2 </tspan>
<tspan x="10" y="410">  │ │   ├── isarray@1.0.0 </tspan>
<tspan x="10" y="426">  │ │   ├── process-nextick-args@1.0.7 </tspan>
<tspan x="10" y="442">  │ │   ├── string_decoder@1.0.0 </tspan>
<tspan x="10" y="458">  │ │   └── util-deprecate@1.0.2 </tspan>
<tspan x="10" y="474">  │ ├── lodash.assignin@4.2.0 </tspan>
<tspan x="10" y="490">  │ ├── lodash.bind@4.2.1 </tspan>
<tspan x="10" y="506">  │ ├── lodash.defaults@4.2.0 </tspan>
<tspan x="10" y="522">  │ ├── lodash.filter@4.6.0 </tspan>
<tspan x="10" y="538">  │ ├── lodash.flatten@4.4.0 </tspan>
<tspan x="10" y="554">  │ ├── lodash.foreach@4.5.0 </tspan>
<tspan x="10" y="570">  │ ├── lodash.map@4.6.0 </tspan>
<tspan x="10" y="586">  │ ├── lodash.merge@4.6.0 </tspan>
<tspan x="10" y="602">  │ ├── lodash.pick@4.4.0 </tspan>
<tspan x="10" y="618">  │ ├── lodash.reduce@4.6.0 </tspan>
<tspan x="10" y="634">  │ ├── lodash.reject@4.6.0 </tspan>
<tspan x="10" y="650">  │ └── lodash.some@4.6.0 </tspan>
<tspan x="10" y="666">  ├── colors@1.1.2 </tspan>
<tspan x="10" y="682">  ├── constants@0.0.2 </tspan>
<tspan x="10" y="698">  ├── foreach@2.0.5 </tspan>
<tspan x="10" y="714">  ├── he@1.1.1 </tspan>
<tspan x="10" y="730">  ├── iconv-lite@0.4.15 </tspan>
<tspan x="10" y="746">  ├── jschardet@1.4.2 </tspan>
<tspan x="10" y="762">  ├── object-assign@4.1.1 </tspan>
<tspan x="10" y="778">  ├─┬ os-locale@1.4.0 </tspan>
<tspan x="10" y="794">  │ └─┬ lcid@1.0.0 </tspan>
<tspan x="10" y="810">  │   └── invert-kv@1.0.0 </tspan>
<tspan x="10" y="826">  ├─┬ prettyjson@1.2.1 </tspan>
<tspan x="10" y="842">  │ └── minimist@1.2.0 </tspan>
<tspan x="10" y="858">  ├─┬ request@2.81.0 </tspan>
<tspan x="10" y="874">  │ ├── aws-sign2@0.6.0 </tspan>
<tspan x="10" y="890">  │ ├── aws4@1.6.0 </tspan>
<tspan x="10" y="906">  │ ├── caseless@0.12.0 </tspan>
<tspan x="10" y="922">  │ ├─┬ combined-stream@1.0.5 </tspan>
<tspan x="10" y="938">  │ │ └── delayed-stream@1.0.0 </tspan>
<tspan x="10" y="954">  │ ├── extend@3.0.0 </tspan>
<tspan x="10" y="970">  │ ├── forever-agent@0.6.1 </tspan>
<tspan x="10" y="986">  │ ├─┬ form-data@2.1.4 </tspan>
<tspan x="10" y="1002">  │ │ └── asynckit@0.4.0 </tspan>
<tspan x="10" y="1018">  │ ├─┬ har-validator@4.2.1 </tspan>
<tspan x="10" y="1034">  │ │ ├─┬ ajv@4.11.7 </tspan>
<tspan x="10" y="1050">  │ │ │ ├── co@4.6.0 </tspan>
<tspan x="10" y="1066">  │ │ │ └─┬ json-stable-stringify@1.0.1 </tspan>
<tspan x="10" y="1082">  │ │ │   └── jsonify@0.0.0 </tspan>
<tspan x="10" y="1098">  │ │ └── har-schema@1.0.5 </tspan>
<tspan x="10" y="1114">  │ ├─┬ hawk@3.1.3 </tspan>
<tspan x="10" y="1130">  │ │ ├── boom@2.10.1 </tspan>
<tspan x="10" y="1146">  │ │ ├── cryptiles@2.0.5 </tspan>
<tspan x="10" y="1162">  │ │ ├── hoek@2.16.3 </tspan>
<tspan x="10" y="1178">  │ │ └── sntp@1.0.9 </tspan>
<tspan x="10" y="1194">  │ ├─┬ http-signature@1.1.1 </tspan>
<tspan x="10" y="1210">  │ │ ├── assert-plus@0.2.0 </tspan>
<tspan x="10" y="1226">  │ │ ├─┬ jsprim@1.4.0 </tspan>
<tspan x="10" y="1242">  │ │ │ ├── assert-plus@1.0.0 </tspan>
<tspan x="10" y="1258">  │ │ │ ├── extsprintf@1.0.2 </tspan>
<tspan x="10" y="1274">  │ │ │ ├── json-schema@0.2.3 </tspan>
<tspan x="10" y="1290">  │ │ │ └── verror@1.3.6 </tspan>
<tspan x="10" y="1306">  │ │ └─┬ sshpk@1.13.0 </tspan>
<tspan x="10" y="1322">  │ │   ├── asn1@0.2.3 </tspan>
<tspan x="10" y="1338">  │ │   ├── assert-plus@1.0.0 </tspan>
<tspan x="10" y="1354">  │ │   ├── bcrypt-pbkdf@1.0.1 </tspan>
<tspan x="10" y="1370">  │ │   ├─┬ dashdash@1.14.1 </tspan>
<tspan x="10" y="1386">  │ │   │ └── assert-plus@1.0.0 </tspan>
<tspan x="10" y="1402">  │ │   ├── ecc-jsbn@0.1.1 </tspan>
<tspan x="10" y="1418">  │ │   ├─┬ getpass@0.1.6 </tspan>
<tspan x="10" y="1434">  │ │   │ └── assert-plus@1.0.0 </tspan>
<tspan x="10" y="1450">  │ │   ├── jodid25519@1.0.2 </tspan>
<tspan x="10" y="1466">  │ │   ├── jsbn@0.1.1 </tspan>
<tspan x="10" y="1482">  │ │   └── tweetnacl@0.14.5 </tspan>
<tspan x="10" y="1498">  │ ├── is-typedarray@1.0.0 </tspan>
<tspan x="10" y="1514">  │ ├── isstream@0.1.2 </tspan>
<tspan x="10" y="1530">  │ ├── json-stringify-safe@5.0.1 </tspan>
<tspan x="10" y="1546">  │ ├─┬ mime-types@2.1.15 </tspan>
<tspan x="10" y="1562">  │ │ └── mime-db@1.27.0 </tspan>
<tspan x="10" y="1578">  │ ├── oauth-sign@0.8.2 </tspan>
<tspan x="10" y="1594">  │ ├── performance-now@0.2.0 </tspan>
<tspan x="10" y="1610">  │ ├── qs@6.4.0 </tspan>
<tspan x="10" y="1626">  │ ├── safe-buffer@5.0.1 </tspan>
<tspan x="10" y="1642">  │ ├── stringstream@0.0.5 </tspan>
<tspan x="10" y="1658">  │ ├── tunnel-agent@0.6.0 </tspan>
<tspan x="10" y="1674">  │ └── uuid@3.0.1 </tspan>
<tspan x="10" y="1690">  ├─┬ require-uncached@1.0.3 </tspan>
<tspan x="10" y="1706">  │ ├─┬ caller-path@0.1.0 </tspan>
<tspan x="10" y="1722">  │ │ └── callsites@0.2.0 </tspan>
<tspan x="10" y="1738">  │ └── resolve-from@1.0.1 </tspan>
<tspan x="10" y="1754">  ├── rsvp@3.5.0 </tspan>
<tspan x="10" y="1770">  ├─┬ spawn-sync@1.0.15 </tspan>
<tspan x="10" y="1786">  │ ├─┬ concat-stream@1.6.0 </tspan>
<tspan x="10" y="1802">  │ │ └── typedarray@0.0.6 </tspan>
<tspan x="10" y="1818">  │ └── os-shim@0.1.3 </tspan>
<tspan x="10" y="1834">  ├─┬ tough-cookie@2.3.2 </tspan>
<tspan x="10" y="1850">  │ └── punycode@1.4.1 </tspan>
<tspan x="10" y="1866">  ├── type-of@2.0.1 </tspan>
<tspan x="10" y="1882">  ├── valid-url@1.0.9 </tspan>
<tspan x="10" y="1898">  └─┬ yargs@6.6.0 </tspan>
<tspan x="10" y="1914">    ├── camelcase@3.0.0 </tspan>
<tspan x="10" y="1930">    ├─┬ cliui@3.2.0 </tspan>
<tspan x="10" y="1946">    │ ├─┬ strip-ansi@3.0.1 </tspan>
<tspan x="10" y="1962">    │ │ └── ansi-regex@2.1.1 </tspan>
<tspan x="10" y="1978">    │ └── wrap-ansi@2.1.0 </tspan>
<tspan x="10" y="1994">    ├── decamelize@1.2.0 </tspan>
<tspan x="10" y="2010">    ├── get-caller-file@1.0.2 </tspan>
<tspan x="10" y="2026">    ├─┬ read-pkg-up@1.0.1 </tspan>
<tspan x="10" y="2042">    │ ├─┬ find-up@1.1.2 </tspan>
<tspan x="10" y="2058">    │ │ ├── path-exists@2.1.0 </tspan>
<tspan x="10" y="2074">    │ │ └─┬ pinkie-promise@2.0.1 </tspan>
<tspan x="10" y="2090">    │ │   └── pinkie@2.0.4 </tspan>
<tspan x="10" y="2106">    │ └─┬ read-pkg@1.1.0 </tspan>
<tspan x="10" y="2122">    │   ├─┬ load-json-file@1.1.0 </tspan>
<tspan x="10" y="2138">    │   │ ├── graceful-fs@4.1.11 </tspan>
<tspan x="10" y="2154">    │   │ ├─┬ parse-json@2.2.0 </tspan>
<tspan x="10" y="2170">    │   │ │ └─┬ error-ex@1.3.1 </tspan>
<tspan x="10" y="2186">    │   │ │   └── is-arrayish@0.2.1 </tspan>
<tspan x="10" y="2202">    │   │ ├── pify@2.3.0 </tspan>
<tspan x="10" y="2218">    │   │ └─┬ strip-bom@2.0.0 </tspan>
<tspan x="10" y="2234">    │   │   └── is-utf8@0.2.1 </tspan>
<tspan x="10" y="2250">    │   ├─┬ normalize-package-data@2.3.8 </tspan>
<tspan x="10" y="2266">    │   │ ├── hosted-git-info@2.4.2 </tspan>
<tspan x="10" y="2282">    │   │ ├─┬ is-builtin-module@1.0.0 </tspan>
<tspan x="10" y="2298">    │   │ │ └── builtin-modules@1.1.1 </tspan>
<tspan x="10" y="2314">    │   │ ├── semver@5.3.0 </tspan>
<tspan x="10" y="2330">    │   │ └─┬ validate-npm-package-license@3.0.1 </tspan>
<tspan x="10" y="2346">    │   │   ├─┬ spdx-correct@1.0.2 </tspan>
<tspan x="10" y="2362">    │   │   │ └── spdx-license-ids@1.2.2 </tspan>
<tspan x="10" y="2378">    │   │   └── spdx-expression-parse@1.0.4 </tspan>
<tspan x="10" y="2394">    │   └── path-type@1.1.0 </tspan>
<tspan x="10" y="2410">    ├── require-directory@2.1.1 </tspan>
<tspan x="10" y="2426">    ├── require-main-filename@1.0.1 </tspan>
<tspan x="10" y="2442">    ├── set-blocking@2.0.0 </tspan>
<tspan x="10" y="2458">    ├─┬ string-width@1.0.2 </tspan>
<tspan x="10" y="2474">    │ ├── code-point-at@1.1.0 </tspan>
<tspan x="10" y="2490">    │ └─┬ is-fullwidth-code-point@1.0.0 </tspan>
<tspan x="10" y="2506">    │   └── number-is-nan@1.0.1 </tspan>
<tspan x="10" y="2522">    ├── which-module@1.0.0 </tspan>
<tspan x="10" y="2538">    ├── y18n@3.2.1 </tspan>
<tspan x="10" y="2554">    └── yargs-parser@4.2.1</tspan>
</text>
</svg>
